<svg xmlns="http://www.w3.org/2000/svg" class="monk" viewBox="0 0 200 220" width="200" height="220" aria-hidden="true"><g class="monk-body"><path d="M36 214 C34 160 58 124 100 124 C142 124 166 160 164 214 Z" fill="#8a5a34" stroke="#0b0e1c" stroke-width="5" stroke-linejoin="round"></path><path d="M100 152 L100 212" fill="none" stroke="#6b4226" stroke-width="3" stroke-linecap="round"></path><path d="M60 134 C74 154 126 154 140 134 C128 146 72 146 60 134 Z" fill="#6b4226" stroke="#0b0e1c" stroke-width="3" stroke-linejoin="round"></path><path d="M44 180 C80 190 120 190 156 180" fill="none" stroke="#ffe45c" stroke-width="7" stroke-linecap="round"></path><path d="M114 188 L120 208 M114 188 L106 206" fill="none" stroke="#ffe45c" stroke-width="5" stroke-linecap="round"></path><circle cx="100" cy="84" r="50" fill="#f5cba7" stroke="#0b0e1c" stroke-width="5"></circle><path d="M54 92 C51 62 70 42 100 42 C130 42 149 62 146 92" fill="none" stroke="#141a2e" stroke-width="15" stroke-linecap="round"></path><ellipse cx="100" cy="54" rx="30" ry="13" fill="#f5cba7"></ellipse><ellipse cx="88" cy="50" rx="8" ry="4" fill="#ffffff" opacity="0.7"></ellipse><g><circle cx="82" cy="88" r="14" fill="#ffffff" stroke="#0b0e1c" stroke-width="3"></circle><circle cx="118" cy="88" r="14" fill="#ffffff" stroke="#0b0e1c" stroke-width="3"></circle><circle cx="84" cy="96" r="6" fill="#0b0e1c"></circle><circle cx="116" cy="96" r="6" fill="#0b0e1c"></circle></g><circle cx="67" cy="108" r="7" fill="#f59a8c" opacity="0.85"></circle><circle cx="133" cy="108" r="7" fill="#f59a8c" opacity="0.85"></circle><path d="M92 118 L108 118" fill="none" stroke="#0b0e1c" stroke-width="3" stroke-linecap="round"></path></g><circle cx="74" cy="166" r="11" fill="#f5cba7" stroke="#0b0e1c" stroke-width="3"></circle><circle cx="126" cy="166" r="11" fill="#f5cba7" stroke="#0b0e1c" stroke-width="3"></circle><g class="accessory-loupe"><path d="M130 164 L148 142" fill="none" stroke="#0b0e1c" stroke-width="10" stroke-linecap="round"></path><circle cx="162" cy="126" r="21" fill="#ffffff" fill-opacity="0.75" stroke="#0b0e1c" stroke-width="10"></circle><circle cx="162" cy="126" r="21" fill="none" stroke="#ffe45c" stroke-width="4"></circle><path d="M151 119 Q156 112 164 113" fill="none" stroke="#0b0e1c" stroke-width="2.5" stroke-linecap="round"></path></g></svg>